<svg width="21" height="19" viewBox="0 0 21 19" fill="none" xmlns="http://www.w3.org/2000/svg">
<path d="M0.500012 6.58004C0.505573 3.96238 2.39928 1.73163 4.97947 1.3016L4.98097 1.30134C6.65486 1.01712 8.4317 1.57487 9.65399 2.79903L9.65455 2.79959L10.1467 3.29096L10.514 3.65764L10.8668 3.27694L11.3132 2.79512C12.575 1.57069 14.3148 1.0177 16.0206 1.3016L0.500012 6.58004ZM0.500012 6.58004V6.82949C0.500012 8.39324 1.1493 9.88899 2.29286 10.955L2.29313 10.9552L9.70503 17.8745C9.70504 17.8745 9.70505 17.8745 9.70507 17.8745C9.91985 18.075 10.2039 18.1871 10.5 18.1871C10.7962 18.1871 11.0802 18.075 11.295 17.8745M0.500012 6.58004L11.295 17.8745M11.295 17.8745L18.7064 10.9552L18.707 10.9547C19.8518 9.889 20.5 8.39344 20.5 6.82949V6.5916C20.5 3.96892 18.6053 1.73231 16.0206 1.30162L11.295 17.8745Z" stroke="black"/>
</svg>
