<svg width="21" height="21" viewBox="0 0 21 21" fill="none" xmlns="http://www.w3.org/2000/svg">
<path d="M0.500012 7.58042C0.505573 4.96276 2.39928 2.73201 4.97947 2.30198L4.98097 2.30173C6.65486 2.0175 8.4317 2.57525 9.65399 3.79941L9.65455 3.79997L10.1467 4.29134L10.514 4.65802L10.8668 4.27732L11.3132 3.7955C12.575 2.57107 14.3148 2.01809 16.0206 2.30198L0.500012 7.58042ZM0.500012 7.58042V7.82987C0.500012 9.39362 1.1493 10.8894 2.29286 11.9553L2.29313 11.9556L9.70503 18.8749C9.70504 18.8749 9.70505 18.8749 9.70507 18.8749C9.91985 19.0754 10.2039 19.1875 10.5 19.1875C10.7962 19.1875 11.0802 19.0754 11.295 18.8749M0.500012 7.58042L11.295 18.8749M11.295 18.8749L18.7064 11.9556L18.707 11.9551C19.8518 10.8894 20.5 9.39382 20.5 7.82987V7.59198C20.5 4.9693 18.6053 2.73269 16.0206 2.302L11.295 18.8749Z" stroke="black"/>
</svg>
