<svg width="41" height="41" viewBox="0 0 41 41" fill="none" xmlns="http://www.w3.org/2000/svg">
<rect width="41" height="41" fill="white"/>
<path d="M10 17.8299V17.592C10 14.725 12.0721 12.2796 14.8973 11.8088C16.7307 11.4975 18.6707 12.107 20.0078 13.4461L20.5 13.9375L20.9553 13.4461C22.3293 12.107 24.2324 11.4975 26.1027 11.8088C28.9287 12.2796 31 14.725 31 17.592V17.8299C31 19.532 30.2945 21.1603 29.0477 22.3211L21.6361 29.2404C21.3285 29.5275 20.9225 29.6875 20.5 29.6875C20.0775 29.6875 19.6715 29.5275 19.3639 29.2404L11.9519 22.3211C10.7067 21.1603 10 19.532 10 17.8299H10Z" fill="#FB3958" fill-opacity="0.81"/>
</svg>
