<svg width="26" height="30" viewBox="0 0 26 30" fill="none" xmlns="http://www.w3.org/2000/svg">
<g clip-path="url(#clip0_265_3846)">
<path d="M13.0058 8.26172C9.31469 8.26172 6.33746 11.2676 6.33746 14.9941C6.33746 18.7207 9.31469 21.7266 13.0058 21.7266C16.6968 21.7266 19.6741 18.7207 19.6741 14.9941C19.6741 11.2676 16.6968 8.26172 13.0058 8.26172ZM13.0058 19.3711C10.6205 19.3711 8.67049 17.4082 8.67049 14.9941C8.67049 12.5801 10.6147 10.6172 13.0058 10.6172C15.3968 10.6172 17.341 12.5801 17.341 14.9941C17.341 17.4082 15.391 19.3711 13.0058 19.3711ZM21.5022 7.98633C21.5022 8.85937 20.8058 9.55664 19.9468 9.55664C19.0821 9.55664 18.3915 8.85351 18.3915 7.98633C18.3915 7.11914 19.0879 6.41601 19.9468 6.41601C20.8058 6.41601 21.5022 7.11914 21.5022 7.98633ZM25.9187 9.58008C25.82 7.47656 25.3441 5.61328 23.8178 4.07812C22.2973 2.54297 20.4517 2.0625 18.3683 1.95703C16.2209 1.83398 9.78478 1.83398 7.63746 1.95703C5.55978 2.05664 3.71424 2.53711 2.1879 4.07226C0.661565 5.60742 0.191476 7.4707 0.0870117 9.57422C-0.0348633 11.7422 -0.0348633 18.2402 0.0870117 20.4082C0.185672 22.5117 0.661565 24.375 2.1879 25.9102C3.71424 27.4453 5.55397 27.9258 7.63746 28.0312C9.78478 28.1543 16.2209 28.1543 18.3683 28.0312C20.4517 27.9316 22.2973 27.4512 23.8178 25.9102C25.3383 24.375 25.8142 22.5117 25.9187 20.4082C26.0406 18.2402 26.0406 11.748 25.9187 9.58008ZM23.1446 22.7344C22.6919 23.8828 21.8156 24.7676 20.6723 25.2305C18.9602 25.916 14.8977 25.7578 13.0058 25.7578C11.1138 25.7578 7.04549 25.9102 5.33924 25.2305C4.20174 24.7734 3.3254 23.8887 2.86692 22.7344C2.1879 21.0059 2.3446 16.9043 2.3446 14.9941C2.3446 13.084 2.19371 8.97656 2.86692 7.2539C3.3196 6.10547 4.19594 5.2207 5.33924 4.75781C7.0513 4.07226 11.1138 4.23047 13.0058 4.23047C14.8977 4.23047 18.966 4.07812 20.6723 4.75781C21.8098 5.21484 22.6861 6.09961 23.1446 7.2539C23.8236 8.98242 23.6669 13.084 23.6669 14.9941C23.6669 16.9043 23.8236 21.0117 23.1446 22.7344Z" fill="url(#paint0_radial_265_3846)"/>
</g>
<defs>
<radialGradient id="paint0_radial_265_3846" cx="0" cy="0" r="1" gradientUnits="userSpaceOnUse" gradientTransform="translate(1.5 31.5) rotate(-55.9228) scale(41.0488 47.701)">
<stop stop-color="#F9ED32"/>
<stop offset="0.640625" stop-color="#EE2A7B"/>
<stop offset="0.994792" stop-color="#002AFF"/>
</radialGradient>
<clipPath id="clip0_265_3846">
<rect width="26" height="30" fill="white"/>
</clipPath>
</defs>
</svg>
