<svg width="37" height="30" viewBox="0 0 37 30" fill="none" xmlns="http://www.w3.org/2000/svg">
<path d="M35.3077 7.27049C34.9042 5.88475 33.7155 4.79338 32.2061 4.42301C29.4703 3.75 18.5 3.75 18.5 3.75C18.5 3.75 7.52975 3.75 4.79387 4.42301C3.28451 4.79344 2.09576 5.88475 1.69229 7.27049C0.959229 9.78223 0.959229 15.0227 0.959229 15.0227C0.959229 15.0227 0.959229 20.2632 1.69229 22.775C2.09576 24.1607 3.28451 25.2066 4.79387 25.577C7.52975 26.25 18.5 26.25 18.5 26.25C18.5 26.25 29.4702 26.25 32.2061 25.577C33.7155 25.2066 34.9042 24.1607 35.3077 22.775C36.0408 20.2632 36.0408 15.0227 36.0408 15.0227C36.0408 15.0227 36.0408 9.78223 35.3077 7.27049ZM14.9121 19.7807V10.2647L24.0811 15.0229L14.9121 19.7807Z" fill="#FA0808"/>
<path d="M23.8999 15.05L14.8999 19.8131L14.8999 10.2868L23.8999 15.05Z" fill="white"/>
</svg>
